<svg width="94" height="93" viewBox="0 0 94 93" fill="none" xmlns="http://www.w3.org/2000/svg">
<g clip-path="url(#clip0_2_4)">
<path d="M64.625 17.4375C64.625 7.80691 56.7341 0 47 0C37.2659 0 29.375 7.80691 29.375 17.4375C29.375 27.0681 37.2659 34.875 47 34.875C56.7341 34.875 64.625 27.0681 64.625 17.4375ZM42.8857 43.7936C31.993 37.1964 14.3497 35.3836 5.47109 34.8841C2.4877 34.717 0 36.9657 0 39.8047V80.2743C0 82.8772 2.12785 85.0478 4.8634 85.1876C12.8791 85.6036 29.0959 87.1276 40.3043 92.713C42.0246 93.5703 44.0643 92.4024 44.0643 90.5569V45.8752C44.0625 45.0269 43.6384 44.2495 42.8857 43.7936ZM88.5289 34.8841C79.6522 35.3818 62.007 37.1964 51.1162 43.7936C50.3634 44.2495 49.9393 45.0578 49.9393 45.906V90.5515C49.9393 92.4024 51.9846 93.5722 53.7103 92.713C64.9169 87.133 81.1246 85.609 89.1384 85.1931C91.874 85.0514 94.0018 82.8808 94.0018 80.2779V39.8047C94 36.9657 91.5123 34.717 88.5289 34.8841Z" fill="url(#paint0_linear_2_4)"/>
</g>
<defs>
<linearGradient id="paint0_linear_2_4" x1="11" y1="-1.32995e-06" x2="87" y2="98" gradientUnits="userSpaceOnUse">
<stop stop-color="#E36414"/>
<stop offset="0.540962" stop-color="#E96E10"/>
<stop offset="1" stop-color="#FF9800"/>
</linearGradient>
<clipPath id="clip0_2_4">
<rect width="94" height="93" fill="white"/>
</clipPath>
</defs>
</svg>
